<svg width="24" height="22" viewBox="0 0 24 22" fill="none" xmlns="http://www.w3.org/2000/svg">
<path d="M22.7917 11H8.37754M3.28971 11H1.20837M3.28971 11C3.28971 10.3255 3.55767 9.67859 4.03463 9.20163C4.5116 8.72466 5.15851 8.4567 5.83304 8.4567C6.50758 8.4567 7.15448 8.72466 7.63145 9.20163C8.10842 9.67859 8.37637 10.3255 8.37637 11C8.37637 11.6746 8.10842 12.3215 7.63145 12.7984C7.15448 13.2754 6.50758 13.5434 5.83304 13.5434C5.15851 13.5434 4.5116 13.2754 4.03463 12.7984C3.55767 12.3215 3.28971 11.6746 3.28971 11ZM22.7917 18.7082H16.0857M16.0857 18.7082C16.0857 19.3829 15.8171 20.0305 15.34 20.5076C14.863 20.9847 14.2159 21.2527 13.5412 21.2527C12.8667 21.2527 12.2198 20.9836 11.7428 20.5066C11.2658 20.0296 10.9979 19.3827 10.9979 18.7082M16.0857 18.7082C16.0857 18.0335 15.8171 17.387 15.34 16.91C14.863 16.4329 14.2159 16.1649 13.5412 16.1649C12.8667 16.1649 12.2198 16.4328 11.7428 16.9098C11.2658 17.3868 10.9979 18.0337 10.9979 18.7082M10.9979 18.7082H1.20837M22.7917 3.29187H19.1692M14.0814 3.29187H1.20837M14.0814 3.29187C14.0814 2.61733 14.3493 1.97043 14.8263 1.49346C15.3033 1.01649 15.9502 0.748535 16.6247 0.748535C16.9587 0.748535 17.2894 0.81432 17.598 0.942135C17.9066 1.06995 18.1869 1.25729 18.4231 1.49346C18.6593 1.72963 18.8466 2.01001 18.9744 2.31858C19.1023 2.62715 19.168 2.95787 19.168 3.29187C19.168 3.62586 19.1023 3.95659 18.9744 4.26516C18.8466 4.57373 18.6593 4.85411 18.4231 5.09028C18.1869 5.32645 17.9066 5.51379 17.598 5.6416C17.2894 5.76942 16.9587 5.8352 16.6247 5.8352C15.9502 5.8352 15.3033 5.56724 14.8263 5.09028C14.3493 4.61331 14.0814 3.9664 14.0814 3.29187Z" stroke="#111111" stroke-width="1.5" stroke-miterlimit="10" stroke-linecap="round"/>
</svg>
