<svg width="18" height="18" viewBox="0 0 18 18" fill="none" xmlns="http://www.w3.org/2000/svg">
<path fill-rule="evenodd" clip-rule="evenodd" d="M15.2004 2.79301C14.3914 1.98366 13.4304 1.34231 12.3726 0.905881C11.3147 0.469451 10.181 0.24656 9.03672 0.25004C4.23438 0.25004 0.325 4.13988 0.323047 8.92192C0.320904 10.4446 0.722286 11.9407 1.48633 13.2579L0.25 17.75L4.86914 16.5442C6.14772 17.2369 7.57903 17.5994 9.0332 17.5989H9.03672C13.8387 17.5989 17.7477 13.7086 17.75 8.92699C17.7529 7.78659 17.529 6.65699 17.0913 5.60392C16.6536 4.55086 16.0108 3.59535 15.2004 2.79301ZM9.03672 16.1352H9.03359C7.73726 16.1356 6.46449 15.7887 5.34766 15.1305L5.0832 14.9743L2.34219 15.6899L3.07383 13.0301L2.90156 12.7567C2.17671 11.6091 1.79267 10.2793 1.79414 8.92192C1.79414 4.94809 5.04453 1.71488 9.03945 1.71488C10.9559 1.71146 12.7951 2.46939 14.1528 3.82196C15.5104 5.17454 16.2752 7.01098 16.2789 8.92738C16.2773 12.9016 13.0285 16.1352 9.03672 16.1352ZM13.009 10.7372C12.7914 10.6286 11.7199 10.1043 11.5215 10.0321C11.323 9.95981 11.1766 9.92348 11.0316 10.1407C10.8867 10.3579 10.4691 10.8438 10.3422 10.9903C10.2152 11.1368 10.0883 11.1528 9.8707 11.0442C9.65313 10.9356 8.95117 10.7071 8.11953 9.96879C7.47227 9.39418 7.03555 8.68481 6.90859 8.46801C6.78164 8.25121 6.89492 8.13363 7.00391 8.02582C7.10195 7.92856 7.22148 7.7727 7.33047 7.64613C7.43945 7.51957 7.47578 7.42895 7.54805 7.28442C7.62031 7.13988 7.58437 7.01332 7.53008 6.90512C7.47578 6.79691 7.04023 5.73012 6.85898 5.29613C6.68203 4.87348 6.50273 4.9309 6.36914 4.92426C6.24219 4.91801 6.0957 4.91645 5.95156 4.91645C5.84137 4.91931 5.73295 4.94487 5.63308 4.99151C5.53321 5.03816 5.44402 5.10489 5.37109 5.18754C5.17148 5.40473 4.60898 5.92973 4.60898 6.99535C4.60898 8.06098 5.39023 9.09223 5.49805 9.23676C5.60586 9.38129 7.0332 11.57 9.21719 12.5086C9.62273 12.6823 10.0371 12.8346 10.4586 12.9649C10.9801 13.1297 11.4547 13.1067 11.8297 13.0508C12.248 12.9887 13.1188 12.5266 13.2996 12.0204C13.4805 11.5141 13.4809 11.0805 13.4266 10.9903C13.3723 10.9 13.227 10.8454 13.009 10.7372Z" fill="#9B6502"/>
</svg>
