<svg width="201" height="18" viewBox="0 0 201 18" fill="none" xmlns="http://www.w3.org/2000/svg">
<path d="M2.59203 17.013V0.0939674H0V18H1.97936H2.82767H9.94397V17.013H2.59203Z" fill="white"/>
<path d="M57.543 17.107V8.60052H64.6593V7.66057H57.543V1.03392H65.1306V0.0939674H54.7153V18H56.6947H57.543H65.6018V17.107H57.543Z" fill="white"/>
<path d="M101.843 17.107V8.60052H108.96V7.66057H101.843V1.03392H109.431V0.0939674H99.0156V18H100.995H101.843H109.902V17.107H101.843Z" fill="white"/>
<path d="M132.712 17.107V8.60052H139.828V7.66057H132.712V1.03392H140.3V0.0939674H129.884V18H131.864H132.712H140.771V17.107H132.712Z" fill="white"/>
<path d="M84.1704 0.0939674V0.98693L88.5533 1.03392V18H91.1453V1.03392H95.4339V0.0939674H84.1704Z" fill="white"/>
<path d="M181.348 0.0939674H178.756V17.953H181.348V0.0939674Z" fill="white"/>
<path d="M27.3343 18L20.8778 0.281969C20.8307 0.187974 20.7364 0.0939677 20.595 0.0939677L20.1237 0.0469818C19.9824 0.0469818 19.841 0.140977 19.7467 0.281969L12.3477 17.953H13.3845L19.2283 4.13576L24.271 17.953H27.3343V18Z" fill="white"/>
<path d="M201 18L194.543 0.281969C194.496 0.187974 194.402 0.0939677 194.261 0.0939677L193.789 0.0469818C193.648 0.0469818 193.507 0.140977 193.412 0.281969L186.013 17.953H187.05L192.894 4.13576L197.937 17.953H201V18Z" fill="white"/>
<path d="M45.4312 0.0939674C43.4047 0.0939674 42.038 0.0939674 42.038 0.0939674V0.140982H39.6816V18H42.2737V10.4334C42.8863 10.4334 44.0645 10.4334 45.8083 10.4334C48.4003 10.4334 51.3693 9.49346 51.3693 4.98171C51.3693 0.422961 47.4577 0.0939674 45.4312 0.0939674ZM45.1013 9.49345C44.0645 9.49345 43.0277 9.49345 42.2737 9.49345V0.98693C42.9806 0.98693 44.2059 0.98693 45.0542 0.98693C46.6094 0.98693 49.1072 1.2689 49.1072 4.79371C49.1072 8.31851 47.1278 9.49345 45.1013 9.49345Z" fill="white"/>
<path d="M79.5988 18H82.6621L77.7608 9.91644C79.6459 9.44646 81.2482 8.08354 81.2482 4.84072C81.2482 0.422967 77.3366 0.0939674 75.3101 0.0939674C73.2836 0.0939674 71.9169 0.0939674 71.9169 0.0939674V0.140982H69.5605V18H72.1526V10.1514C72.6239 10.1514 73.6607 10.1514 75.0745 10.1514L79.5988 18ZM72.1526 0.98693C72.7181 0.98693 73.8492 0.98693 74.6975 0.98693C76.2527 0.98693 78.5619 1.50391 78.5619 4.93472C78.5619 8.36553 77.0067 9.25846 74.9802 9.25846C73.9906 9.25846 72.8124 9.25846 72.1526 9.25846V0.98693Z" fill="white"/>
<path d="M113.39 0.0939674V18H114.332V5.54568L114.756 5.45168L123.381 18H125.596V0.0939674H124.418V14.2402L114.851 0.0939674H113.39Z" fill="white"/>
<path d="M144.494 0.0939674V18H145.436V5.54568L145.86 5.45168L154.485 18H156.7V0.0939674H155.522V14.2402L145.955 0.0939674H144.494Z" fill="white"/>
<path d="M173.383 16.7311C173.43 16.7781 173.43 16.8251 173.383 16.872C173.147 17.107 171.734 17.953 168.529 17.953C163.91 17.953 159.952 16.0731 159.952 8.97649C159.952 1.87988 163.91 -3.8147e-06 168.765 -3.8147e-06C171.875 -3.8147e-06 173.147 0.892935 173.383 1.22192C173.43 1.31591 173.43 1.4099 173.336 1.50389L172.959 1.87989C172.865 1.97389 172.723 1.97388 172.629 1.92688C172.111 1.69189 170.65 0.89293 169.094 0.89293C166.267 0.89293 162.921 2.77282 162.921 9.02347C162.921 15.2741 166.267 17.107 169.094 17.107C170.744 17.107 172.252 16.3081 172.676 16.0731C172.723 16.0261 172.818 16.0731 172.865 16.1201L173.383 16.7311Z" fill="white"/>
</svg>
