<svg width="60" height="60" viewBox="0 0 60 60" fill="none" xmlns="http://www.w3.org/2000/svg">
<path d="M30 0L33.9891 4.81395L39.2705 1.4683L41.5768 7.27933L47.6336 5.72949L48.0312 11.9688L54.2705 12.3664L52.7207 18.4232L58.5317 20.7295L55.1861 26.0109L60 30L55.1861 33.9891L58.5317 39.2705L52.7207 41.5768L54.2705 47.6336L48.0312 48.0312L47.6336 54.2705L41.5768 52.7207L39.2705 58.5317L33.9891 55.1861L30 60L26.0109 55.1861L20.7295 58.5317L18.4232 52.7207L12.3664 54.2705L11.9688 48.0312L5.72949 47.6336L7.27933 41.5768L1.4683 39.2705L4.81395 33.9891L0 30L4.81395 26.0109L1.4683 20.7295L7.27933 18.4232L5.72949 12.3664L11.9688 11.9688L12.3664 5.72949L18.4232 7.27933L20.7295 1.4683L26.0109 4.81395L30 0Z" fill="#FEC85B"/>
</svg>
