<svg width="19" height="17" viewBox="0 0 19 17" fill="none" xmlns="http://www.w3.org/2000/svg">
<path d="M6.90847 16.498C7.58873 16.498 8.14019 15.9465 8.14019 15.2662C8.14019 14.586 7.58873 14.0345 6.90847 14.0345C6.22822 14.0345 5.67676 14.586 5.67676 15.2662C5.67676 15.9465 6.22822 16.498 6.90847 16.498Z" fill="white"/>
<path d="M14.814 16.498C15.4942 16.498 16.0457 15.9465 16.0457 15.2662C16.0457 14.586 15.4942 14.0345 14.814 14.0345C14.1337 14.0345 13.5823 14.586 13.5823 15.2662C13.5823 15.9465 14.1337 16.498 14.814 16.498Z" fill="white"/>
<path d="M17.994 3.76693H4.33429L3.82929 1.18031C3.8005 1.03911 3.7231 0.912478 3.61057 0.822455C3.49804 0.732431 3.35751 0.68472 3.21343 0.687625H0.75V1.91935H2.70843L5.061 12.3103C5.0898 12.4515 5.16719 12.5781 5.27972 12.6682C5.39225 12.7582 5.53278 12.8059 5.67686 12.803H16.7623V12.1562H6.05425L5.67686 10.5414H16.7623C16.9047 10.5449 17.0438 10.4989 17.1561 10.4113C17.2684 10.3238 17.3469 10.2 17.3782 10.061L18.6099 4.51828C18.6305 4.42691 18.63 4.33202 18.6085 4.24086C18.5869 4.14969 18.5448 4.06465 18.4854 3.9922C18.4261 3.91974 18.3509 3.8618 18.2658 3.82276C18.1806 3.78373 18.0877 3.76463 17.994 3.76693Z" fill="white"/>
</svg>
