<svg width="25" height="25" viewBox="0 0 25 25" fill="none" xmlns="http://www.w3.org/2000/svg">
<g clip-path="url(#clip0_4053_829)">
<path d="M5.04876 0.0239258C2.62118 0.0239258 0.666504 1.97861 0.666504 4.40618V19.6417C0.666504 22.0693 2.62118 24.0239 5.04876 24.0239H13.3063V14.6414H10.8253V11.2634H13.3063V8.37744C13.3063 6.11004 14.7722 4.02818 18.149 4.02818C19.5162 4.02818 20.5273 4.15944 20.5273 4.15944L20.4478 7.31395C20.4478 7.31395 19.4166 7.30421 18.2915 7.30421C17.0738 7.30421 16.8785 7.86528 16.8785 8.79672V11.2635H20.5445L20.3848 14.6415H16.8785V24.024H20.2842C22.7118 24.024 24.6665 22.0693 24.6665 19.6417V4.40621C24.6665 1.97863 22.7118 0.0239498 20.2842 0.0239498H5.04874L5.04876 0.0239258Z" fill="#111111"/>
</g>
<defs>
<clipPath id="clip0_4053_829">
<rect width="24" height="24" fill="white" transform="translate(0.666504 0.0239258)"/>
</clipPath>
</defs>
</svg>
