<svg width="25" height="26" viewBox="0 0 25 26" fill="none" xmlns="http://www.w3.org/2000/svg">
<g clip-path="url(#clip0_4053_827)">
<path d="M13.7851 0.524414C15.1913 0.528164 15.905 0.535664 16.5212 0.553163L16.7637 0.561912C17.0437 0.571912 17.3199 0.584411 17.6537 0.599411C18.9836 0.661908 19.8911 0.871899 20.6873 1.18064C21.5123 1.49812 22.2072 1.9281 22.9022 2.62182C23.538 3.24646 24.0299 4.00235 24.3434 4.83672C24.6521 5.63294 24.8621 6.5404 24.9246 7.87159C24.9396 8.20407 24.9521 8.48031 24.9621 8.76155L24.9696 9.00404C24.9883 9.61901 24.9958 10.3327 24.9984 11.7389L24.9996 12.6714V14.3088C25.0026 15.2205 24.9931 16.1322 24.9708 17.0437L24.9634 17.2862C24.9534 17.5674 24.9409 17.8436 24.9259 18.1761C24.8634 19.5073 24.6509 20.4135 24.3434 21.211C24.0299 22.0454 23.538 22.8013 22.9022 23.4259C22.2776 24.0617 21.5217 24.5536 20.6873 24.8671C19.8911 25.1758 18.9836 25.3858 17.6537 25.4483L16.7637 25.4858L16.5212 25.4933C15.905 25.5108 15.1913 25.5196 13.7851 25.5221L12.8526 25.5233H11.2165C10.3043 25.5265 9.3922 25.5169 8.48033 25.4946L8.23785 25.4871C7.94112 25.4758 7.64446 25.4629 7.34788 25.4483C6.01794 25.3858 5.11048 25.1758 4.31302 24.8671C3.47909 24.5534 2.72364 24.0616 2.09937 23.4259C1.46308 22.8014 0.970804 22.0455 0.656932 21.211C0.348196 20.4148 0.138205 19.5073 0.0757076 18.1761L0.0382093 17.2862L0.0319597 17.0437C0.00891827 16.1322 -0.00149905 15.2205 0.000710965 14.3088V11.7389C-0.00274875 10.8272 0.00641848 9.91549 0.0282098 9.00404L0.0369594 8.76155C0.046959 8.48031 0.0594584 8.20407 0.0744577 7.87159C0.136955 6.5404 0.346945 5.63419 0.655682 4.83672C0.970286 4.00201 1.46343 3.24609 2.10062 2.62182C2.72453 1.98629 3.47954 1.49446 4.31302 1.18064C5.11048 0.871899 6.01669 0.661908 7.34788 0.599411C7.68037 0.584411 7.95786 0.571912 8.23785 0.561912L8.48033 0.554413C9.39178 0.532205 10.3035 0.522621 11.2152 0.525664L13.7851 0.524414ZM12.5002 6.77414C10.8426 6.77414 9.25299 7.43259 8.08093 8.60464C6.90888 9.77669 6.25043 11.3663 6.25043 13.0239C6.25043 14.6814 6.90888 16.271 8.08093 17.4431C9.25299 18.6151 10.8426 19.2736 12.5002 19.2736C14.1577 19.2736 15.7473 18.6151 16.9194 17.4431C18.0914 16.271 18.7499 14.6814 18.7499 13.0239C18.7499 11.3663 18.0914 9.77669 16.9194 8.60464C15.7473 7.43259 14.1577 6.77414 12.5002 6.77414ZM12.5002 9.27402C12.9926 9.27394 13.4802 9.37085 13.9352 9.55923C14.3902 9.7476 14.8036 10.0237 15.1519 10.3719C15.5001 10.72 15.7764 11.1334 15.9649 11.5883C16.1535 12.0432 16.2505 12.5308 16.2506 13.0232C16.2507 13.5157 16.1538 14.0033 15.9654 14.4583C15.777 14.9133 15.5009 15.3267 15.1528 15.6749C14.8046 16.0232 14.3913 16.2995 13.9364 16.488C13.4814 16.6765 12.9938 16.7736 12.5014 16.7737C11.5069 16.7737 10.5531 16.3786 9.84987 15.6754C9.14664 14.9722 8.75157 14.0184 8.75157 13.0239C8.75157 12.0293 9.14664 11.0756 9.84987 10.3723C10.5531 9.6691 11.5069 9.27402 12.5014 9.27402M19.0636 4.89922C18.6492 4.89922 18.2518 5.06383 17.9588 5.35684C17.6658 5.64986 17.5012 6.04727 17.5012 6.46165C17.5012 6.87603 17.6658 7.27344 17.9588 7.56646C18.2518 7.85947 18.6492 8.02408 19.0636 8.02408C19.478 8.02408 19.8754 7.85947 20.1684 7.56646C20.4614 7.27344 20.626 6.87603 20.626 6.46165C20.626 6.04727 20.4614 5.64986 20.1684 5.35684C19.8754 5.06383 19.478 4.89922 19.0636 4.89922Z" fill="#111111"/>
</g>
<defs>
<clipPath id="clip0_4053_827">
<rect width="25" height="25" fill="white" transform="translate(0 0.523926)"/>
</clipPath>
</defs>
</svg>
