<svg width="29" height="25" viewBox="0 0 29 25" fill="none" xmlns="http://www.w3.org/2000/svg">
<path d="M21.7502 1.22412C22.5436 1.22412 23.3292 1.37932 24.0622 1.68084C24.7952 1.98237 25.4612 2.42433 26.0223 2.98148C26.5833 3.53863 27.0283 4.20007 27.3319 4.92802C27.6356 5.65597 27.7918 6.43619 27.7918 7.22412V16.8241C27.7918 17.6121 27.6356 18.3923 27.3319 19.1202C27.0283 19.8482 26.5833 20.5096 26.0223 21.0668C25.4612 21.6239 24.7952 22.0659 24.0622 22.3674C23.3292 22.6689 22.5436 22.8241 21.7502 22.8241H7.25016C6.45676 22.8241 5.67113 22.6689 4.93812 22.3674C4.20511 22.0659 3.53908 21.6239 2.97806 21.0668C1.84503 19.9415 1.2085 18.4154 1.2085 16.8241V7.22412C1.2085 5.63282 1.84503 4.1067 2.97806 2.98148C4.11109 1.85626 5.64781 1.22412 7.25016 1.22412H21.7502ZM10.8752 8.42412V15.6241C10.8753 15.8363 10.9322 16.0447 11.0399 16.228C11.1476 16.4113 11.3023 16.5629 11.4883 16.6675C11.6742 16.772 11.8848 16.8257 12.0985 16.8231C12.3121 16.8205 12.5213 16.7616 12.7046 16.6525L18.7462 13.0525C18.9249 12.9458 19.0727 12.7951 19.1754 12.6149C19.278 12.4347 19.3319 12.2311 19.3319 12.0241C19.3319 11.8171 19.278 11.6136 19.1754 11.4334C19.0727 11.2532 18.9249 11.1024 18.7462 10.9957L12.7046 7.39572C12.5213 7.28664 12.3121 7.22779 12.0985 7.22516C11.8848 7.22253 11.6742 7.27623 11.4883 7.38077C11.3023 7.48531 11.1476 7.63695 11.0399 7.82024C10.9322 8.00353 10.8753 8.21191 10.8752 8.42412Z" fill="#111111"/>
</svg>
