<svg width="25" height="25" viewBox="0 0 25 25" fill="none" xmlns="http://www.w3.org/2000/svg">
<g clip-path="url(#clip0_4053_831)">
<path d="M3.76207 0.0239258C1.871 0.0239258 0.333496 1.56143 0.333496 3.4525V20.5954C0.333496 22.4864 1.871 24.0239 3.76207 24.0239H20.9049C22.796 24.0239 24.3335 22.4864 24.3335 20.5954V3.4525C24.3335 1.56143 22.796 0.0239258 20.9049 0.0239258H3.76207ZM19.6781 4.52393L14.1174 10.8775L20.6585 19.5239H15.5371L11.5299 14.2793L6.93885 19.5239H4.39421L10.3406 12.7257L4.06742 4.52393H9.31742L12.9442 9.31857L17.1335 4.52393H19.6781ZM17.6531 18.0025L8.55135 5.965H7.03528L16.2389 18.0025H17.6478H17.6531Z" fill="#111111"/>
</g>
<defs>
<clipPath id="clip0_4053_831">
<rect width="24" height="24" fill="white" transform="translate(0.333496 0.0239258)"/>
</clipPath>
</defs>
</svg>
