<svg width="100" height="100" viewBox="0 0 100 100" fill="none" xmlns="http://www.w3.org/2000/svg">
<g filter="url(#filter0_d_6101_973)">
<path d="M14.5481 49.2519C14.5463 55.6274 16.2122 61.8527 19.3798 67.3398L14.2451 86.0875L33.431 81.0569C38.7376 83.9457 44.6832 85.4594 50.7251 85.4598H50.741C70.6866 85.4598 86.9228 69.2295 86.9313 49.2804C86.9351 39.6136 83.1739 30.5236 76.3404 23.6848C69.5081 16.8466 60.4213 13.0786 50.7395 13.0742C30.7916 13.0742 14.5566 29.3036 14.5484 49.2519" fill="url(#paint0_linear_6101_973)"/>
<path d="M13.2561 49.2399C13.2541 55.8449 14.9796 62.2929 18.2602 67.9764L12.9414 87.3961L32.8152 82.1852C38.2911 85.1708 44.4564 86.7449 50.7299 86.7473H50.7461C71.4073 86.7473 88.2267 69.9332 88.2355 49.2699C88.2391 39.2558 84.3426 29.8391 77.2649 22.7552C70.1864 15.6723 60.7746 11.7688 50.7461 11.7646C30.0814 11.7646 13.2643 28.5764 13.2561 49.2399ZM25.0917 66.9976L24.3496 65.8197C21.2302 60.8596 19.5838 55.1279 19.5861 49.2423C19.5926 32.0673 33.5702 18.0941 50.7579 18.0941C59.0814 18.0976 66.9038 21.3423 72.7873 27.2294C78.6705 33.117 81.9079 40.9435 81.9058 49.2676C81.8982 66.4426 67.9202 80.4176 50.7461 80.4176H50.7338C45.1417 80.4146 39.6573 78.9129 34.8743 76.0749L33.7361 75.3999L21.9426 78.492L25.0917 66.9976Z" fill="url(#paint1_linear_6101_973)"/>
<path d="M41.3757 33.5729C40.6739 32.0132 39.9354 31.9818 39.2681 31.9544C38.7216 31.9309 38.0969 31.9326 37.4728 31.9326C36.8481 31.9326 35.8331 32.1676 34.9751 33.1044C34.1163 34.0421 31.6963 36.3079 31.6963 40.9165C31.6963 45.525 35.0531 49.9791 35.521 50.6047C35.9895 51.2291 42.0013 60.9891 51.5225 64.7438C59.4354 67.8641 61.0457 67.2435 62.7631 67.0871C64.4807 66.9312 68.3054 64.8218 69.0857 62.6344C69.8666 60.4474 69.8666 58.5726 69.6325 58.1809C69.3983 57.7906 68.7736 57.5562 67.8369 57.0879C66.9001 56.6197 62.2945 54.3532 61.436 54.0406C60.5772 53.7282 59.9528 53.5724 59.3281 54.5103C58.7033 55.4468 56.9095 57.5562 56.3628 58.1809C55.8166 58.8071 55.2698 58.885 54.3333 58.4165C53.396 57.9465 50.3792 56.9585 46.8001 53.7676C44.0154 51.2847 42.1354 48.2185 41.5889 47.2806C41.0425 46.3441 41.5304 45.8365 42.0001 45.3697C42.421 44.95 42.9372 44.2759 43.406 43.7291C43.8731 43.1821 44.0289 42.7918 44.3413 42.1671C44.6539 41.5418 44.4975 40.9947 44.2636 40.5262C44.0289 40.0576 42.2086 35.425 41.3757 33.5729Z" fill="white"/>
</g>
<defs>
<filter id="filter0_d_6101_973" x="-6" y="-6" width="116" height="116" filterUnits="userSpaceOnUse" color-interpolation-filters="sRGB">
<feFlood flood-opacity="0" result="BackgroundImageFix"/>
<feColorMatrix in="SourceAlpha" type="matrix" values="0 0 0 0 0 0 0 0 0 0 0 0 0 0 0 0 0 0 127 0" result="hardAlpha"/>
<feOffset dx="2" dy="2"/>
<feGaussianBlur stdDeviation="4"/>
<feComposite in2="hardAlpha" operator="out"/>
<feColorMatrix type="matrix" values="0 0 0 0 0 0 0 0 0 0 0 0 0 0 0 0 0 0 0.4 0"/>
<feBlend mode="normal" in2="BackgroundImageFix" result="effect1_dropShadow_6101_973"/>
<feBlend mode="normal" in="SourceGraphic" in2="effect1_dropShadow_6101_973" result="shape"/>
</filter>
<linearGradient id="paint0_linear_6101_973" x1="3648.55" y1="7314.4" x2="3648.55" y2="13.0742" gradientUnits="userSpaceOnUse">
<stop stop-color="#1FAF38"/>
<stop offset="1" stop-color="#60D669"/>
</linearGradient>
<linearGradient id="paint1_linear_6101_973" x1="3777.65" y1="7574.91" x2="3777.65" y2="11.7646" gradientUnits="userSpaceOnUse">
<stop stop-color="#F9F9F9"/>
<stop offset="1" stop-color="white"/>
</linearGradient>
</defs>
</svg>
